<?xml version="1.0" encoding="utf-8"?>
<!-- Generator: Adobe Illustrator 15.1.0, SVG Export Plug-In . SVG Version: 6.00 Build 0)  -->
<!DOCTYPE svg PUBLIC "-//W3C//DTD SVG 1.1//EN" "http://www.w3.org/Graphics/SVG/1.1/DTD/svg11.dtd">
<svg version="1.1" id="Layer_1" xmlns="http://www.w3.org/2000/svg" xmlns:xlink="http://www.w3.org/1999/xlink" x="0px" y="0px"
	 width="432px" height="358.948px" viewBox="0 0 432 358.948" enable-background="new 0 0 432 358.948" xml:space="preserve">
<path d="M287.379,358.948c0,0,7.748-156.604,82.108-299.133c0,0,20.739-2.591,44.058-13.938
	c23.317-11.347,17.912-37.96,17.912-37.96l-44.698,3.724L370.264,0.17c0,0-61.196-5.421-73.589,44.928
	C284.282,95.448,259.564,103,246.94,104.96c-73.428,11.401-114.773,5.52-148.72,9.979c-28.505,3.746-47.095,24.66-50.969,48.674
	C38.79,216.067,0,263.537,0,263.537c0,16.27,16.073,72.815,32.339,95.411c-12.2-84.565,17.236-107.03,79.979-151.183
	c5.264-3.243,36.212-12.393,66.615-2.324c23.855,7.9,48.705,12.611,86.789,15.916C265.723,221.357,266.465,282.396,287.379,358.948z
	"/>
</svg>
